<?xml version="1.0" encoding="utf-8"?>
<!-- Generator: Adobe Illustrator 27.4.0, SVG Export Plug-In . SVG Version: 6.00 Build 0)  -->
<svg version="1.1" id="Layer_1" xmlns="http://www.w3.org/2000/svg" xmlns:xlink="http://www.w3.org/1999/xlink" x="0px"
     y="0px"
     viewBox="0 0 3315.0522461 492.3285828" style="enable-background:new 0 0 3315.0522461 492.3285828;"
     xml:space="preserve">
    <g>
	<g id="FORENSICS_00000064338706709031462540000000034292661671296438_">
		<path class="st0" d="M756.7653198,452.0943298H649.4675293v38.7070007h-16.2984619v-68.2489319
			c0-14.09375,11.3762817-25.4656982,25.4678345-25.4656982h98.128418v16.2963257H649.4675293v22.410675h107.2977905V452.0943298z"
        />
        <path class="st0" d="M1011.9804688,465.3356323c0,14.0894165-11.3740845,25.4656982-25.4656982,25.4656982h-72.6626587
			c-14.0916138,0-25.4678955-11.3762817-25.4678955-25.4656982v-42.7832336c0-14.09375,11.3762817-25.4656982,25.4678955-25.4656982
			h72.6626587c14.0916138,0,25.4656982,11.3719482,25.4656982,25.4656982V465.3356323z M995.6841431,474.5006714v-61.1176453
			h-91.0014648v61.1176453H995.6841431z"/>
        <path class="st0" d="M1267.1956787,490.8013306h-16.3006592v-28.5207214h-90.9992676v28.5207214h-16.298584v-93.7146301
			h98.1306152c14.0915527,0,25.4678955,11.3719482,25.4678955,25.4656982v14.2581787
			c0,7.8106384-4.0762939,13.9250183-10.3572998,17.3175354c6.2810059,3.3968811,10.3572998,9.5112305,10.3572998,17.3175354
			V490.8013306z M1250.8950195,445.9799805v-32.5969543h-90.9992676v32.5969543H1250.8950195z"/>
        <path class="st0" d="M1522.4107666,490.8013306h-98.1304932c-14.0916748,0-25.4678955-11.3762817-25.4678955-25.4656982
			v-42.7832336c0-14.09375,11.3762207-25.4656982,25.4678955-25.4656982h98.1304932v16.2963257h-107.2999268v22.410675h107.2999268
			v16.3006287h-107.2999268v22.4063416h107.2999268V490.8013306z"/>
        <path class="st0" d="M1778.6450195,397.0867004v76.9076843c0,10.1862793-8.1524658,18.3344421-18.3387451,18.3344421
			c-5.0888672,0-9.6756592-2.0381165-13.0682373-5.4306641l-76.9119873-78.0976868v82.0008545h-16.2984619v-76.9077148
			c0-10.1862793,8.1502686-18.3344421,18.3365479-18.3344421c5.0931396,0,9.6800537,2.0338135,13.0725098,5.4306641
			l76.9077148,78.0976868v-82.000824H1778.6450195z"/>
        <path class="st0" d="M2033.5183105,465.3356323c0,14.0894165-11.3762207,25.4656982-25.4699707,25.4656982h-98.128418v-16.3006592
			h107.302124v-22.4063416h-86.2502441c-14.0893555,0-25.4656982-11.3762512-25.4656982-25.4700317v-4.0718994
			c0-14.09375,11.3763428-25.4656982,25.4656982-25.4656982h98.1328125v16.2963257h-107.2978516v22.410675h86.2415771
			c14.09375,0,25.4699707,11.3762512,25.4699707,25.4656677V465.3356323z"/>
        <path class="st0" d="M2176.6801758,490.8013306h-16.2963867v-93.7146301h16.2963867V490.8013306z"/>
        <path class="st0" d="M2431.8735352,490.8013306h-98.1281738c-14.09375,0-25.4658203-11.3762817-25.4658203-25.4656982v-42.7832336
			c0-14.09375,11.3720703-25.4656982,25.4658203-25.4656982h98.1281738v16.2963257h-107.2976074v61.1176453h107.2976074V490.8013306
			z"/>
        <path class="st0" d="M2681.9956055,465.3356323c0,14.0894165-11.3718262,25.4656982-25.4699707,25.4656982h-98.1240234
			v-16.3006592h107.2978516v-22.4063416h-86.2502441c-14.0893555,0-25.4614258-11.3762512-25.4614258-25.4700317v-4.0718994
			c0-14.09375,11.3720703-25.4656982,25.4614258-25.4656982h98.1325684v16.2963257h-107.2976074v22.410675h86.2414551
			c14.0981445,0,25.4699707,11.3762512,25.4699707,25.4656677V465.3356323z"/>
	</g>
        <g id="TRUFFLEPIG_00000123401573256637873190000008255165992041193150_">
		<path class="st0"
              d="M341.6730652,64.0628586H202.8700104V245.57724h-64.0647888V64.0628586H0V0.0002422h341.6730652V64.0628586z"
        />
            <path class="st0" d="M708.2277222,245.5772247h-64.0626221v-64.0626221h-217.104187v64.0626221h-64.0647888V0.0002422h267.8216858
			c42.7091675,0,77.4099121,34.6985893,77.4099121,77.4098969v26.6945648c0,18.6818542-8.8974609,34.6985931-22.244751,45.3764191
			c13.34729,10.6778259,22.244751,26.6945648,22.244751,45.3807678V245.5772247z M644.1651001,117.4519958V64.0628586h-217.104187
			v53.3891373H644.1651001z"/>
            <path class="st0" d="M1081.9038086,168.1673279c0,42.706955-34.7006836,77.4098969-77.4098511,77.4098969H814.0821533
			c-42.7091675,0-77.4099121-34.7029419-77.4099121-77.4098969V0.0002422h64.0647583v181.5143585h217.104248V0.0002422h64.062561
			V168.1673279z"/>
            <path class="st0" d="M1455.5799561,154.8200378h-281.1668701v90.7571869h-64.0646973V77.410141
			c0-42.7113113,34.7006836-77.4098969,77.4099121-77.4098969h267.8216553v64.0626144h-281.1668701v26.6945648h281.1668701
			V154.8200378z"/>
            <path class="st0" d="M1822.1346436,154.8200378h-281.1668701v90.7571869h-64.0646973V77.410141
			c0-42.7113113,34.7006836-77.4098969,77.40979-77.4098969h267.8217773v64.0626144h-281.1668701v26.6945648h281.1668701
			V154.8200378z"/>
            <path class="st0" d="M2124.626709,245.5772247h-203.756958c-42.7113037,0-77.4141846-34.7029419-77.4141846-77.4098969V0.0002422
			h64.0668945v181.5143585h217.104248V245.5772247z"/>
            <path class="st0" d="M2482.2946777,245.5772247h-267.8195801c-42.7111816,0-77.4140625-34.7029419-77.4140625-77.4098969
			V77.410141c0-42.7113113,34.7028809-77.4098969,77.4140625-77.4098969h267.8195801v64.0626144h-281.166748v26.6945648h281.166748
			v64.0626144h-281.166748v26.6945648h281.166748V245.5772247z"/>
            <path class="st0" d="M2855.9709473,104.1047058c0,42.7069702-34.6987305,77.4098969-77.4099121,77.4098969h-203.7570801
			v64.0626221h-64.0625V0.0002422h267.8195801c42.7111816,0,77.4099121,34.6985893,77.4099121,77.4098969V104.1047058z
			 M2791.9082031,117.4519958V64.0628586h-217.104248v53.3891373H2791.9082031z"/>
            <path class="st0" d="M2941.3586426,245.5772247h-64.0668945V0.0002422h64.0668945V245.5772247z"/>
            <path class="st0" d="M3315.0522461,168.1673279c0,42.706955-34.6987305,77.4098969-77.4099121,77.4098969h-190.409668
			c-42.7114258,0-77.4143066-34.7029419-77.4143066-77.4098969V77.410141c0-42.7113113,34.7028809-77.4098969,77.4143066-77.4098969
			h267.8195801v64.0626144h-281.166748v117.4517441h217.1040039v-26.6945648H3142.4375V90.7574234h172.6147461V168.1673279z"/>
	</g>
</g>
</svg>
