<?xml version="1.0" encoding="UTF-8" standalone="no"?>
<!-- Generator: Adobe Illustrator 27.4.0, SVG Export Plug-In . SVG Version: 6.00 Build 0)  -->

<svg
        version="1.1"
        id="Layer_1"
        x="0px"
        y="0px"
        viewBox="0 0 3023.991 3023.991"
        xml:space="preserve"
        width="3023.991"
        height="3023.991"
        xmlns="http://www.w3.org/2000/svg"
        xmlns:svg="http://www.w3.org/2000/svg"><defs
   id="defs5" />
    <style
            type="text/css"
            id="style1">
	.st0{fill:#233F94;}
</style>
 
    <g
            id="g5"
            transform="translate(-145.37726,-376.84973)">


	<path
            class="st0"
            d="M 2759.5823,1064.9844 V 376.84973 l -428.3216,246.94385 -167.8967,96.81586 -184.4425,-107.23371 0.6133,-0.30481 -322.0077,-185.97409 -322.0078,185.97409 0.6133,0.30481 L 1151.3834,720.60944 983.48663,623.79358 555.46997,376.84973 v 688.13467 l -185.66739,107.2337 v 1485.3393 l 367.04691,212.0158 185.66742,106.927 735.01019,424.3404 734.7034,-424.3404 185.6674,-106.927 367.045,-212.0158 V 1172.2181 Z M 741.13739,697.9375 l 149.82129,86.7066 73.22571,42.28089 104.47551,60.35632 161.1572,92.52802 -327.52242,189.34387 -161.15729,93.1412 V 697.9375 Z M 2573.9148,2657.2507 2392.2305,2762.033 2206.8699,2869.5732 1657.5271,3186.6797 1108.1843,2869.5732 922.51691,2762.033 741.13739,2657.2507 v -554.2439 l 139.71014,-44.7324 228.25497,61.2764 206.8079,55.7617 -11.9493,-44.7324 -23.8969,-89.463 -3.6765,-14.0943 -17.7706,-66.4843 h 797.818 l -17.7687,66.4843 -3.6765,14.0943 -23.8987,89.463 h -0.3067 l -11.9475,44.7324 206.808,-55.7617 227.9463,-60.9697 h 0.3066 l 140.0169,44.4257 z m 0,-1394.9563 -161.1572,-93.1412 -327.5225,-189.34387 161.1572,-92.52802 104.1707,-60.35632 73.5305,-42.28089 149.8213,-86.7066 z"
            id="path2"/>
        <g
                id="g3">
		<path
                class="st0"
                d="m 1919.0377,2253.6438 -135.3397,-40.5259 -1.41,-0.4338 -124.8293,-37.3833 -124.8292,37.3833 -1.4073,0.4338 -135.3396,40.5259 -166.1145,49.7375 30.0155,170.7732 23.1876,132.6307 19.5077,111.3928 106.4061,38.3581 113.5595,40.9597 8.7777,3.1417 126.2365,45.6198 126.2393,-45.6198 8.775,-3.1417 113.5596,-40.9597 106.4088,-38.3581 19.505,-111.3928 23.1903,-132.6307 30.0154,-170.7732 z m 29.3648,201.8733 -23.1902,132.5222 -8.6666,49.5193 -47.2455,17.0117 -85.6022,30.9917 -27.9573,10.0767 -69.5653,25.0315 -10.8359,3.8994 -17.8808,6.5024 -17.878,-6.5024 -10.8358,-3.8994 -69.5653,-25.0315 -27.9574,-10.0767 -85.6022,-30.9917 -47.2455,-17.0117 -8.6692,-49.5193 -23.1875,-132.5222 -13.3279,-75.9595 73.7901,-22.1055 104.2422,-31.2087 32.5075,-9.7512 65.0152,-19.3965 10.8358,-3.2512 17.878,-5.418 17.8808,5.418 10.8359,3.2512 65.015,19.3965 32.5076,9.7512 104.2395,31.2087 73.7928,22.1055 z"
                id="path3"/>
	</g>
        <g
                id="g4">
		<polygon
                class="st0"
                points="1531.2222,2416.7239 1588.6527,2399.4939 1588.6527,2614.0444 1531.2222,2593.3489 1475.0933,2573.0845 1451.903,2440.4539 "
                id="polygon3"/>
            <polygon
                    class="st0"
                    points="1783.698,2416.7239 1863.0172,2440.4539 1839.827,2573.0845 1783.698,2593.3489 1726.2675,2614.0444 1726.2675,2399.4939 "
                    id="polygon4"/>
	</g>
</g></svg>
